<?xml version="1.0" encoding="UTF-8"?>
<!DOCTYPE svg PUBLIC "-//W3C//DTD SVG 1.1//EN" "http://www.w3.org/Graphics/SVG/1.1/DTD/svg11.dtd">
<!-- Creator: CorelDRAW 2017 -->
<svg xmlns="http://www.w3.org/2000/svg" xml:space="preserve" width="6.3484mm" height="6.4361mm" version="1.1" style="shape-rendering:geometricPrecision; text-rendering:geometricPrecision; image-rendering:optimizeQuality; fill-rule:evenodd; clip-rule:evenodd"
viewBox="0 0 1.82 1.85"
 xmlns:xlink="http://www.w3.org/1999/xlink">
 <defs>
  <style type="text/css">
   <![CDATA[
    .fil0 {fill:#C7B299}
   ]]>
  </style>
 </defs>
 <g id="Слой_x0020_1">
  <metadata id="CorelCorpID_0Corel-Layer"/>
  <path id="icon-search.svg" class="fil0" d="M1.81 1.75l-0.47 -0.46c0.13,-0.14 0.2,-0.32 0.2,-0.51 0,-0 0,-0.01 0,-0.01 0,-0.42 -0.34,-0.77 -0.77,-0.77 -0.42,0 -0.77,0.34 -0.77,0.77 0,0.42 0.34,0.77 0.77,0.77 0,0 0,0 0,0 0.18,0 0.35,-0.06 0.48,-0.17l0.47 0.47c0.01,0.01 0.03,0.02 0.04,0.02 0.02,0 0.03,-0.01 0.04,-0.02 0.01,-0.01 0.02,-0.03 0.02,-0.04 0,-0.02 -0.01,-0.03 -0.02,-0.04l0 0zm-1.04 -1.63c0.36,0 0.65,0.29 0.65,0.65 0,0.36 -0.29,0.65 -0.65,0.65 -0.36,0 -0.65,-0.29 -0.65,-0.65 0,-0.36 0.29,-0.65 0.65,-0.65z"/>
 </g>
</svg>
