<?xml version="1.0" encoding="UTF-8"?>
<!DOCTYPE svg PUBLIC "-//W3C//DTD SVG 1.1//EN" "http://www.w3.org/Graphics/SVG/1.1/DTD/svg11.dtd">
<!-- Creator: CorelDRAW 2017 -->
<svg xmlns="http://www.w3.org/2000/svg" xml:space="preserve" width="18.5509mm" height="18.5509mm" version="1.1" style="shape-rendering:geometricPrecision; text-rendering:geometricPrecision; image-rendering:optimizeQuality; fill-rule:evenodd; clip-rule:evenodd"
viewBox="0 0 13.32 13.32"
 xmlns:xlink="http://www.w3.org/1999/xlink">
 <defs>
  <style type="text/css">
   <![CDATA[
    .fil0 {fill:#7D4D00}
   ]]>
  </style>
 </defs>
 <g id="Слой_x0020_1">
  <metadata id="CorelCorpID_0Corel-Layer"/>
  <path id="icon-play.svg" class="fil0" d="M6.55 13.22c-0,0 -0.01,0 -0.01,0 -1.13,0 -2.25,-0.29 -3.24,-0.85 -0.13,-0.07 -0.2,-0.2 -0.2,-0.34 0,-0.22 0.18,-0.39 0.39,-0.39 0.07,0 0.14,0.02 0.2,0.05 0.88,0.5 1.87,0.76 2.88,0.76 3.24,0 5.87,-2.63 5.87,-5.87 0,-3.24 -2.63,-5.87 -5.87,-5.87 -3.24,0 -5.87,2.63 -5.87,5.87 0,1.56 0.62,3.05 1.72,4.15 0.08,0.07 0.12,0.18 0.12,0.28 0,0.22 -0.18,0.39 -0.39,0.39 -0.11,0 -0.21,-0.04 -0.28,-0.12 -1.19,-1.24 -1.86,-2.89 -1.86,-4.61 0,-3.68 2.98,-6.66 6.66,-6.66 3.68,0 6.66,2.98 6.66,6.66 0,3.68 -2.98,6.66 -6.66,6.66 -0.12,0 -0.24,-0 -0.36,-0.01l0.25 -0.09zm-0.56 -8.62l0 3.94 2.11 -1.88 -2.11 -2.06zm-0.64 5.26c-0,-0 -0,-0 -0,-0 -0.21,0 -0.39,-0.17 -0.39,-0.39 0,-0 0,-0 0,-0l0 -5.61c0,-0 0,-0 0,-0 0,-0.22 0.18,-0.39 0.39,-0.39 0.09,0 0.18,0.03 0.25,0.09l3.36 2.81c0.09,0.07 0.14,0.18 0.14,0.3 0,0.12 -0.05,0.23 -0.14,0.3l-3.36 2.8c-0.07,0.06 -0.16,0.09 -0.25,0.09 -0,0 -0,0 -0,0l-0 0z"/>
 </g>
</svg>
