<?xml version="1.0" encoding="UTF-8"?>
<!DOCTYPE svg PUBLIC "-//W3C//DTD SVG 1.1//EN" "http://www.w3.org/Graphics/SVG/1.1/DTD/svg11.dtd">
<!-- Creator: CorelDRAW 2017 -->
<svg xmlns="http://www.w3.org/2000/svg" xml:space="preserve" width="18.5509mm" height="18.5509mm" version="1.1" style="shape-rendering:geometricPrecision; text-rendering:geometricPrecision; image-rendering:optimizeQuality; fill-rule:evenodd; clip-rule:evenodd"
viewBox="0 0 12.99 12.99"
 xmlns:xlink="http://www.w3.org/1999/xlink">
 <defs>
  <style type="text/css">
   <![CDATA[
    .fil0 {fill:white}
   ]]>
  </style>
 </defs>
 <g id="Слой_x0020_1">
  <metadata id="CorelCorpID_0Corel-Layer"/>
  <path id="icon-play.svg" class="fil0" d="M6.38 12.89c-0,0 -0.01,0 -0.01,0 -1.11,0 -2.2,-0.29 -3.16,-0.83 -0.12,-0.07 -0.2,-0.2 -0.2,-0.33 0,-0.21 0.17,-0.38 0.38,-0.38 0.07,0 0.13,0.02 0.19,0.05 0.86,0.48 1.83,0.74 2.81,0.74 3.16,0 5.73,-2.56 5.73,-5.73 0,-3.16 -2.56,-5.73 -5.73,-5.73 -3.16,0 -5.73,2.56 -5.73,5.73 0,1.52 0.6,2.97 1.67,4.05 0.07,0.07 0.12,0.17 0.12,0.27 0,0.21 -0.17,0.38 -0.38,0.38 -0.1,0 -0.2,-0.04 -0.27,-0.12 -1.16,-1.21 -1.81,-2.82 -1.81,-4.5 0,-3.59 2.91,-6.49 6.49,-6.49 3.59,0 6.49,2.91 6.49,6.49 0,3.59 -2.91,6.49 -6.49,6.49 -0.12,0 -0.24,-0 -0.35,-0.01l0.24 -0.09z"/>
  <path class="fil0" d="M5.1 4.02l0.03 0c0.21,0 0.38,0.16 0.38,0.35l0 4.24c0,0.19 -0.17,0.35 -0.38,0.35l-0.03 0c-0.21,0 -0.38,-0.16 -0.38,-0.35l0 -4.24c0,-0.19 0.17,-0.35 0.38,-0.35zm2.76 0l0.03 0c0.21,0 0.38,0.16 0.38,0.35l0 4.24c0,0.19 -0.17,0.35 -0.38,0.35l-0.03 0c-0.21,0 -0.38,-0.16 -0.38,-0.35l0 -4.24c0,-0.19 0.17,-0.35 0.38,-0.35z"/>
 </g>
</svg>
